<svg width="24" height="24" viewBox="0 0 24 24" fill="none" xmlns="http://www.w3.org/2000/svg">
<path fill-rule="evenodd" clip-rule="evenodd" d="M2.90381 3.90381C4.12279 2.68482 5.77609 2 7.5 2C8.48018 2 9.37318 2.14018 10.2468 2.52068C10.8597 2.78762 11.4321 3.15937 12 3.63935C12.5679 3.15937 13.1403 2.78762 13.7532 2.52068C14.6268 2.14018 15.5198 2 16.5 2C18.2239 2 19.8772 2.68482 21.0962 3.90381C22.3152 5.12279 23 6.77609 23 8.5C23 9.99952 22.4588 11.2805 21.7251 12.372C21.7012 12.4131 21.6741 12.4529 21.6437 12.4912C21.052 13.3444 20.3475 14.0795 19.7035 14.7107L12.7071 21.7071C12.3166 22.0976 11.6834 22.0976 11.2929 21.7071L4.29885 14.7131C2.79442 13.258 1 11.2494 1 8.5C1 6.77609 1.68482 5.12279 2.90381 3.90381ZM15 16.5858L13.7071 15.2929C13.3166 14.9024 12.6834 14.9024 12.2929 15.2929C11.9024 15.6834 11.9024 16.3166 12.2929 16.7071L13.5858 18L12 19.5858L5.70711 13.2929L5.69502 13.281C4.2007 11.8365 3 10.3469 3 8.5C3 7.30653 3.47411 6.16193 4.31802 5.31802C5.16193 4.47411 6.30653 4 7.5 4C8.27982 4 8.88682 4.10982 9.44819 4.35432C9.80168 4.50827 10.1614 4.72624 10.5498 5.03603L8.33547 7.25032C8.33502 7.25077 8.33457 7.25122 8.33411 7.25167C8.03794 7.54605 7.80285 7.89605 7.64234 8.28156C7.48159 8.66767 7.39882 9.08177 7.39882 9.5C7.39882 9.91823 7.48159 10.3323 7.64234 10.7184C7.80289 11.104 8.03806 11.4541 8.33434 11.7485C9.53523 12.9479 11.4481 12.9837 12.7075 11.8546L12.7162 11.8467L14.7839 9.94884C15.1185 9.64608 15.5537 9.47839 16.005 9.47839C16.4572 9.47839 16.8932 9.64671 17.228 9.95056L19.5057 11.9974C19.1429 12.4343 18.7335 12.8611 18.3001 13.2857L18.2929 13.2929L18 13.5858L16.7071 12.2929C16.3166 11.9024 15.6834 11.9024 15.2929 12.2929C14.9024 12.6834 14.9024 13.3166 15.2929 13.7071L16.5858 15L15 16.5858ZM20.6039 10.2954C20.8552 9.72975 21 9.13576 21 8.5C21 7.30653 20.5259 6.16193 19.682 5.31802C18.8381 4.47411 17.6935 4 16.5 4C15.7202 4 15.1132 4.10982 14.5518 4.35432C13.984 4.60163 13.4001 5.0141 12.7071 5.70711L9.74711 8.66711L9.74453 8.66968C9.63498 8.77843 9.54803 8.90779 9.4887 9.05029C9.42937 9.1928 9.39882 9.34564 9.39882 9.5C9.39882 9.65436 9.42937 9.8072 9.4887 9.94971C9.54803 10.0922 9.63498 10.2216 9.74453 10.3303L9.74711 10.3329C10.1852 10.771 10.8887 10.7957 11.3687 10.3688L13.438 8.46942C14.1408 7.83167 15.0559 7.47839 16.005 7.47839C16.9532 7.47839 17.8674 7.83101 18.57 8.46761C18.5706 8.46822 18.5713 8.46883 18.572 8.46944L20.6039 10.2954Z" fill="#E9EAEC"/>
</svg>
